<?xml version="1.0" encoding="utf-8"?>
<!-- Generator: Adobe Illustrator 24.1.0, SVG Export Plug-In . SVG Version: 6.00 Build 0)  -->
<svg version="1.1" id="Слой_1" xmlns="http://www.w3.org/2000/svg" xmlns:xlink="http://www.w3.org/1999/xlink" x="0px" y="0px"
	 viewBox="0 0 767.3 122" style="enable-background:new 0 0 767.3 122;" xml:space="preserve">
<style type="text/css">
	.st0{fill-rule:evenodd;clip-rule:evenodd;fill:#FFFFFF;}
	.st1{fill:none;}
	.st2{fill:#FFFFFF;}
	.st3{fill:#EE746C;}
	.st4{fill:#51B57F;}
	.st5{fill:#F59D3A;}
	.st6{fill:#6063AB;}
	.st7{fill:#5DB6D8;}
</style>
<path class="st0" d="M140.4,26.1h42.8l-3.7,52.7h-8.4l3.2-45.4h-26l-3.2,45.4h-8.4L140.4,26.1L140.4,26.1z M232.2,71.4l-0.5,7.4
	h-36.2l3.7-52.7h35.5l-0.5,7.4H207l-1,15h23.5l-0.5,6.9h-23.5l-1.1,16.1h27.8V71.4z M244.4,78.8l3.7-52.7h22.1
	c2.3,0,4.5,0.5,6.5,1.5c1.9,1,3.5,2.3,4.9,3.9c1.3,1.6,2.3,3.5,3,5.5c0.7,2,0.9,4.2,0.8,6.3c-0.2,2.2-0.7,4.4-1.6,6.4
	c-1.7,4.1-4.9,7.4-8.9,9.4c-2.1,1-4.3,1.5-6.6,1.4H254l-1.3,18.3H244.4z M254.5,53.1h13.7c1.1,0,2.3-0.2,3.3-0.7
	c1-0.5,1.9-1.2,2.6-2.1c0.8-0.9,1.4-2,1.9-3.1c0.5-1.2,0.8-2.6,0.9-3.9c0.1-1.3,0-2.7-0.4-4c-0.3-1.1-0.9-2.2-1.6-3.1
	c-0.7-0.9-1.6-1.5-2.6-2c-1-0.5-2-0.7-3.1-0.7h-13.3C255.9,33.5,254.5,53.1,254.5,53.1z M293,52.1c0.2-3.3,1-6.5,2.4-9.5
	c1.4-3.1,3.3-6,5.6-8.5c2.4-2.5,5.3-4.6,8.5-6.1c3.4-1.5,7.1-2.3,10.9-2.3c4.3-0.1,8.5,1,12.1,3.2c3.2,2,5.7,4.9,7.1,8.3l-6.8,4.4
	c-0.5-1.5-1.3-2.8-2.4-4c-0.9-1.1-2-1.9-3.2-2.6c-1.2-0.6-2.5-1.1-3.8-1.4c-1.2-0.3-2.5-0.4-3.8-0.4c-2.6,0-5.1,0.6-7.4,1.7
	c-2.1,1.1-4,2.6-5.5,4.4c-1.5,1.9-2.7,4-3.6,6.2c-0.9,2.2-1.4,4.5-1.6,6.8c-0.2,2.5,0.1,5,0.8,7.4c0.6,2.2,1.7,4.3,3.1,6.2
	c1.4,1.8,3.1,3.2,5.1,4.3c2.1,1.1,4.4,1.7,6.7,1.6c1.3,0,2.7-0.2,4-0.5c1.4-0.3,2.8-0.8,4-1.6c1.3-0.7,2.6-1.6,3.7-2.7
	c1.2-1.1,2.1-2.5,2.9-3.9l6.6,3.9c-1,2-2.3,3.7-3.9,5.2c-1.6,1.5-3.5,2.8-5.5,3.8c-2,1-4.1,1.8-6.3,2.4c-2.1,0.5-4.2,0.8-6.4,0.8
	c-3.5,0.1-6.9-0.8-10-2.4c-2.9-1.5-5.4-3.6-7.5-6.2c-2.1-2.6-3.7-5.5-4.6-8.7C293.2,58.7,292.8,55.4,293,52.1z M370.4,79.2
	c-3.5,0-7-0.7-10.1-2.3c-2.9-1.5-5.5-3.5-7.6-6c-2.1-2.5-3.7-5.5-4.6-8.6c-1-3.2-1.4-6.6-1.1-9.9c0.2-3.5,1.1-6.9,2.6-10.1
	c1.5-3.2,3.5-6,5.9-8.5c2.4-2.5,5.3-4.5,8.4-5.9c3.2-1.5,6.7-2.2,10.3-2.2c3.5,0,7,0.7,10.1,2.3c2.9,1.5,5.4,3.6,7.5,6.1
	c2,2.6,3.5,5.5,4.5,8.6c1,3.2,1.4,6.5,1.1,9.8c-0.2,3.5-1.1,6.9-2.6,10.1c-1.5,3.2-3.5,6-5.9,8.5c-2.4,2.5-5.3,4.5-8.5,5.9
	C377.3,78.5,373.9,79.2,370.4,79.2z M355.5,52.4c-0.2,2.4,0.1,4.9,0.7,7.2c0.6,2.2,1.6,4.3,2.9,6.2c1.3,1.8,3,3.3,5,4.3
	c2.1,1.1,4.5,1.7,6.9,1.6c2.5,0,5-0.6,7.2-1.7c2.1-1.1,4-2.6,5.5-4.4c1.6-1.8,2.8-3.9,3.7-6.2c0.9-2.2,1.4-4.6,1.6-7
	c0.2-2.4-0.1-4.9-0.7-7.2c-0.6-2.2-1.6-4.3-3-6.1c-2.8-3.7-7.2-5.8-11.8-5.8c-2.5,0-5,0.6-7.2,1.7c-4.3,2.2-7.6,5.9-9.3,10.4
	C356.2,47.7,355.7,50,355.5,52.4z M455.3,26.1l-3.7,52.7h-8.4l1.6-23.2h-26.6l-1.6,23.2h-8.3l3.7-52.7h8.3l-1.5,22.1h26.6l1.5-22.1
	L455.3,26.1z M486.8,26.1h7.3l17.1,52.7h-8.8l-4.6-14.3h-20.4l-6.5,14.3h-8.8L486.8,26.1L486.8,26.1z M496.6,58.3l-6.9-22.7
	l-10.3,22.7L496.6,58.3z M539.3,41.9c-0.8,5.8-1.9,11.5-3.4,17.2c-0.9,4.1-2.4,8-4.5,11.6c-1.4,2.7-3.5,4.9-6.1,6.5
	c-2.5,1.4-5.3,2.1-8.2,2l-0.4-7.7c1.6-0.1,3.1-0.5,4.5-1.3c1.6-1.1,2.9-2.6,3.7-4.4c1.4-3,2.5-6.1,3.2-9.3c1-4,2-9.3,3-16l2.3-14.6
	h29.9l-3.7,52.7h-8.4l3.2-45.4h-13.8C540.6,33.2,539.3,41.9,539.3,41.9z M586.1,48.4h5.5L609.9,26h9.5l-20.6,25.5l18.7,27.3H608
	l-16-22.9h-6.3l-1.6,22.9h-8.4l3.7-52.7h8.4L586.1,48.4L586.1,48.4z M636.1,66l31.5-39.9h6.6l-3.7,52.7h-8.4l2.7-39.1l-31,39.1h-7.1
	l3.7-52.7h8.4L636.1,66z M733.5,26.1l-3.7,52.7h-8.4l1.6-23.2h-26.6l-1.6,23.2h-8.3l3.7-52.7h8.3L697,48.2h26.6l1.5-22.1L733.5,26.1
	z"/>
<path class="st0" d="M744.3,14.8h-3.1V2.7h-4.8V0h12.7v2.7h-4.8L744.3,14.8L744.3,14.8z M759.5,8.7l4.7-8.7h3.1v14.8h-3V5.1l-4,7.4
	h-1.6l-4.1-7.4v9.7h-3V0h3.2L759.5,8.7z"/>
<path class="st0" d="M144.5,97.5c0.6,0,1.2,0.1,1.7,0.3c0.5,0.2,1,0.5,1.3,0.9c0.4,0.4,0.7,0.9,0.8,1.4c0.2,0.5,0.2,1.1,0.2,1.7
	c-0.1,0.8-0.3,1.6-0.7,2.3c-0.5,0.8-1.2,1.4-2.1,1.7c0.9,0.2,1.7,0.8,2.2,1.5c0.5,0.8,0.8,1.8,0.6,2.8c-0.1,1.4-0.8,2.7-1.9,3.5
	c-1.3,0.8-2.8,1.3-4.3,1.2h-8.7l1.4-17.4L144.5,97.5L144.5,97.5z M142.3,104.9c0.7,0,1.3-0.2,1.8-0.6c0.5-0.5,0.8-1.1,0.8-1.8
	c0.1-0.6-0.1-1.1-0.4-1.6c-0.4-0.5-1-0.7-1.6-0.7h-4.5l-0.4,4.7H142.3z M142.2,112.3c1.4,0.1,2.6-1,2.7-2.4c0,0,0,0,0-0.1
	c0.1-0.6-0.1-1.3-0.5-1.8c-0.5-0.5-1.1-0.8-1.8-0.7h-4.9l-0.4,5H142.2z M152.9,97.5h3.6l-0.5,5.8h3.2c0.8,0,1.6,0.1,2.4,0.4
	c0.7,0.2,1.4,0.6,1.9,1.1c0.5,0.5,0.9,1.1,1.2,1.8c0.3,0.8,0.4,1.7,0.3,2.5c-0.1,0.9-0.3,1.7-0.7,2.5c-0.4,0.7-0.9,1.3-1.5,1.8
	c-0.6,0.5-1.3,0.9-2.1,1.1c-0.8,0.2-1.6,0.3-2.4,0.3h-6.8L152.9,97.5L152.9,97.5z M167.8,97.5h3.6l-1.4,17.4h-3.6L167.8,97.5z
	 M158.3,112c0.8,0.1,1.5-0.2,2.1-0.7c0.6-0.5,1-1.3,1-2.1c0.2-0.8-0.1-1.6-0.7-2.2c-0.5-0.5-1.2-0.7-1.9-0.7h-3l-0.5,5.7L158.3,112z
	 M185.5,97.5c0.6,0,1.2,0.1,1.7,0.3c0.5,0.2,1,0.5,1.3,0.9c0.4,0.4,0.7,0.9,0.8,1.4c0.2,0.5,0.2,1.1,0.2,1.7
	c-0.1,0.8-0.3,1.6-0.7,2.3c-0.5,0.8-1.2,1.4-2.1,1.7c0.9,0.2,1.7,0.8,2.2,1.5c0.5,0.8,0.8,1.8,0.6,2.8c-0.1,1.4-0.8,2.7-1.9,3.5
	c-1.3,0.8-2.8,1.3-4.3,1.2h-8.7l1.4-17.4L185.5,97.5L185.5,97.5z M183.3,104.9c0.7,0,1.3-0.2,1.8-0.6c0.5-0.5,0.8-1.1,0.8-1.8
	c0.1-0.6-0.1-1.1-0.4-1.6c-0.4-0.5-1-0.7-1.6-0.7h-4.5l-0.4,4.7H183.3z M183.2,112.3c1.4,0.1,2.6-1,2.7-2.4c0,0,0,0,0-0.1
	c0.1-0.6-0.1-1.3-0.5-1.8c-0.5-0.5-1.1-0.8-1.8-0.7h-4.9l-0.4,5H183.2z M200.3,115.3c-1.2,0-2.5-0.2-3.6-0.7c-1-0.5-2-1.1-2.7-2
	c-0.7-0.9-1.3-1.8-1.6-2.9c-0.3-1.1-0.5-2.3-0.4-3.4c0.2-2.4,1.2-4.6,2.9-6.3c0.9-0.8,1.9-1.5,3-2c1.2-0.5,2.4-0.7,3.7-0.7
	c1.2,0,2.5,0.2,3.6,0.7c1,0.5,2,1.1,2.7,2c0.7,0.9,1.3,1.8,1.6,2.9c0.3,1.1,0.5,2.3,0.4,3.4c-0.2,2.4-1.2,4.6-2.9,6.3
	c-0.9,0.8-1.9,1.5-3,2C202.8,115,201.6,115.3,200.3,115.3z M195.8,106.3c-0.1,0.8,0,1.6,0.2,2.3c0.2,0.7,0.5,1.3,0.9,1.8
	c0.4,0.5,0.9,0.9,1.5,1.2c0.6,0.3,1.3,0.4,2,0.4c1.4,0,2.8-0.5,3.8-1.6c0.5-0.6,0.9-1.2,1.2-1.9c0.3-0.7,0.5-1.5,0.6-2.3
	c0.1-0.8,0-1.6-0.2-2.3c-0.2-0.7-0.5-1.3-0.9-1.9c-0.4-0.5-0.9-0.9-1.5-1.2c-0.6-0.3-1.3-0.4-2-0.4c-0.7,0-1.4,0.2-2,0.5
	c-0.7,0.3-1.3,0.7-1.7,1.3c-0.5,0.6-0.9,1.2-1.3,1.9C196.1,104.8,195.9,105.5,195.8,106.3z M210.4,111.8l-0.7,8.4h3.1l0.4-5.2h12.4
	l-0.4,5.2h3.2l0.7-8.4h-2.2l1.1-14.2h-11.5l-1,5.1c-0.3,1.7-0.6,3.2-0.9,4.3c-0.2,0.9-0.5,1.8-0.9,2.7c-0.2,0.6-0.6,1.1-1,1.5
	c-0.4,0.3-0.9,0.5-1.4,0.6L210.4,111.8z M223.3,111.8H216c0.7-0.9,1.2-1.9,1.6-3c0.4-1.3,0.9-3,1.4-5.1l0.7-3.2h4.6
	C224.3,100.5,223.3,111.8,223.3,111.8z M236.1,109.7l9.9-12.2h2.8l-1.4,17.4h-3.6l1-11.9l-9.7,11.9h-3l1.4-17.4h3.6
	C237.1,97.5,236.1,109.7,236.1,109.7z M261.8,107.7l6.4-10.2h3.7l-1.4,17.4H267l0.9-11.4l-5.5,8.7h-1.9l-4.1-8.7l-0.9,11.4H252
	l1.4-17.4h3.7L261.8,107.7z M297.8,114.9h-3.6l1.1-14.2h-7.4l-1.1,14.2h-3.6l1.4-17.4h14.6L297.8,114.9z M310.1,115.3
	c-1.2,0-2.5-0.2-3.6-0.7c-1-0.4-1.9-1.1-2.7-1.9c-0.7-0.8-1.3-1.8-1.6-2.9c-0.3-1.1-0.5-2.3-0.4-3.5c0.1-1.2,0.4-2.4,0.9-3.5
	c0.5-1.1,1.2-2.1,2.1-2.9c0.9-0.8,1.9-1.5,3-2c1.2-0.5,2.5-0.7,3.8-0.7c1.2,0,2.5,0.2,3.6,0.7c1,0.5,1.9,1.1,2.7,1.9
	c1.5,1.7,2.2,4,1.9,6.2c0,0.3-0.1,0.5-0.1,0.7c0,0.2-0.1,0.4-0.1,0.6h-13.9c0,0.7,0.1,1.4,0.4,2.1c0.2,0.6,0.6,1.1,1,1.6
	c0.4,0.5,0.9,0.8,1.5,1c0.6,0.2,1.2,0.4,1.9,0.4c0.5,0,1-0.1,1.5-0.2c0.5-0.1,1-0.3,1.4-0.5c0.8-0.4,1.5-1.1,1.9-1.9l3.1,0.9
	c-0.7,1.3-1.9,2.5-3.2,3.2C313.7,114.8,311.9,115.3,310.1,115.3L310.1,115.3z M316.2,104.9c0-0.7-0.1-1.4-0.4-2
	c-0.2-0.6-0.6-1.1-1-1.6c-0.4-0.4-0.9-0.8-1.5-1c-0.6-0.2-1.2-0.4-1.9-0.4c-0.7,0-1.4,0.1-2,0.4c-0.6,0.2-1.2,0.6-1.7,1
	c-0.5,0.5-0.9,1-1.3,1.6c-0.3,0.6-0.6,1.3-0.7,2H316.2z M332,115.3c-1.3,0.1-2.5-0.3-3.6-1c-1-0.6-1.8-1.5-2.3-2.6l-0.8,10.3h-3.7
	l2-24.5h3.2l-0.3,3.1c0.7-1,1.7-1.9,2.8-2.5c1.1-0.6,2.3-0.9,3.6-0.9c1.1,0,2.2,0.2,3.2,0.7c1,0.4,1.8,1.1,2.4,2
	c0.7,0.8,1.2,1.8,1.5,2.9c0.3,1.1,0.4,2.3,0.3,3.4c-0.1,1.2-0.4,2.4-0.9,3.5c-0.5,1-1.1,2-1.8,2.9c-0.7,0.8-1.6,1.5-2.6,1.9
	C334.1,115,333.1,115.3,332,115.3L332,115.3z M331,112.1c1.5,0,2.9-0.7,3.9-1.8c0.5-0.6,0.9-1.2,1.2-1.9c0.3-0.7,0.5-1.4,0.5-2.2
	c0.1-0.8,0-1.6-0.2-2.3c-0.2-0.7-0.5-1.3-1-1.9c-0.4-0.5-1-1-1.6-1.3c-0.7-0.3-1.4-0.5-2.1-0.5c-0.5,0-1,0.1-1.5,0.3
	c-0.5,0.2-1,0.4-1.5,0.7c-0.5,0.3-0.9,0.7-1.3,1.1c-0.3,0.4-0.6,0.8-0.8,1.3l-0.4,4.6c0.2,0.5,0.4,1,0.7,1.5
	c0.3,0.5,0.7,0.9,1.1,1.2c0.4,0.3,0.8,0.6,1.3,0.8C329.8,112,330.4,112.1,331,112.1L331,112.1z M342.6,106.2
	c0.1-1.2,0.4-2.4,0.9-3.5c0.5-1.1,1.2-2,2-2.9c0.9-0.8,1.9-1.5,3-1.9c1.2-0.5,2.5-0.7,3.8-0.7c1.6-0.1,3.2,0.4,4.5,1.2
	c1.2,0.8,2.1,1.8,2.7,3.1l-3.6,1.1c-0.8-1.5-2.3-2.3-3.9-2.3c-1.4,0-2.8,0.5-3.8,1.6c-0.5,0.5-0.9,1.1-1.2,1.8
	c-0.3,0.8-0.5,1.6-0.6,2.4c-0.1,0.8,0,1.6,0.2,2.3c0.2,0.7,0.5,1.3,1,1.9c0.4,0.5,1,0.9,1.6,1.2c0.6,0.3,1.3,0.4,2,0.4
	c0.4,0,0.9-0.1,1.3-0.2c0.5-0.1,0.9-0.3,1.3-0.5c0.4-0.2,0.7-0.5,1-0.8c0.3-0.3,0.5-0.6,0.7-0.9l3.5,1.1c-0.7,1.4-1.8,2.5-3.2,3.2
	c-1.5,0.8-3.2,1.2-4.9,1.2c-1.2,0-2.5-0.2-3.6-0.7c-1.1-0.4-2-1.1-2.7-2c-0.7-0.8-1.3-1.8-1.6-2.9
	C342.6,108.4,342.5,107.3,342.6,106.2L342.6,106.2z M369.2,115.3c-1.2,0-2.5-0.2-3.6-0.7c-1-0.5-2-1.1-2.7-2
	c-0.7-0.9-1.3-1.8-1.6-2.9c-0.3-1.1-0.5-2.3-0.4-3.4c0.2-2.4,1.2-4.6,2.9-6.3c0.9-0.8,1.9-1.5,3-2c1.2-0.5,2.4-0.7,3.7-0.7
	c1.2,0,2.5,0.2,3.6,0.7c1,0.5,2,1.1,2.7,2c0.7,0.9,1.3,1.8,1.6,2.9c0.3,1.1,0.5,2.3,0.4,3.4c-0.2,2.4-1.2,4.6-2.9,6.3
	c-0.9,0.8-1.9,1.5-3,2C371.7,115,370.5,115.3,369.2,115.3z M364.7,106.3c-0.1,0.8,0,1.6,0.2,2.3c0.2,0.7,0.5,1.3,0.9,1.8
	c0.4,0.5,0.9,0.9,1.5,1.2c0.6,0.3,1.3,0.4,2,0.4c1.4,0,2.8-0.5,3.8-1.6c0.5-0.6,0.9-1.2,1.2-1.9c0.3-0.7,0.5-1.5,0.6-2.3
	c0.1-0.8,0-1.6-0.2-2.3c-0.2-0.7-0.5-1.3-0.9-1.9c-0.4-0.5-0.9-0.9-1.5-1.2c-0.6-0.3-1.3-0.4-2-0.4c-0.7,0-1.4,0.2-2,0.5
	c-0.7,0.3-1.3,0.7-1.7,1.3c-0.5,0.6-0.9,1.2-1.3,1.9C365,104.8,364.8,105.5,364.7,106.3z M385.9,104.5h7.9l0.6-6.9h3.6l-1.4,17.4
	H393l0.6-7.4h-7.9l-0.6,7.3h-3.6l1.4-17.4h3.6L385.9,104.5L385.9,104.5z M405.6,115.3c-0.8,0-1.6-0.1-2.3-0.4
	c-0.6-0.3-1.3-0.7-1.8-1.1c-0.5-0.5-0.8-1.1-1.1-1.7c-0.2-0.7-0.3-1.5-0.3-2.2c0.1-0.8,0.3-1.5,0.7-2.2c0.4-0.7,1-1.3,1.7-1.7
	c0.7-0.5,1.5-0.9,2.4-1.1c1-0.3,2-0.4,3-0.4c0.8,0,1.6,0.1,2.4,0.2c0.7,0.1,1.4,0.3,2.1,0.6l0.1-1.2c0.2-1.1-0.2-2.2-0.9-3
	c-0.8-0.8-2-1.2-3.1-1.1c-1,0-1.9,0.2-2.8,0.5c-1,0.4-2,0.9-2.9,1.5l-0.9-2.3c2.1-1.4,4.6-2.2,7.2-2.3c2-0.2,3.9,0.5,5.4,1.8
	c1.3,1.4,1.9,3.4,1.6,5.3l-0.5,6.3c-0.1,0.8,0.2,1.2,0.9,1.2l-0.3,3.1c-0.3,0.1-0.6,0.1-0.9,0.1h-0.7c-0.6,0-1.1-0.2-1.6-0.5
	c-0.4-0.4-0.6-0.9-0.6-1.4v-1.1c-0.8,1-1.9,1.8-3.1,2.3C408.1,115,406.9,115.3,405.6,115.3L405.6,115.3z M406.8,112.6
	c0.9,0,1.7-0.2,2.5-0.5c0.7-0.3,1.4-0.7,2-1.3c0.5-0.3,0.8-0.8,0.8-1.3l0.2-2.3c-0.6-0.2-1.2-0.4-1.9-0.6c-0.7-0.1-1.3-0.2-2-0.2
	c-1.2,0-2.3,0.3-3.3,0.8c-0.8,0.4-1.4,1.3-1.4,2.2c-0.1,0.8,0.2,1.6,0.8,2.2C405.1,112.3,405.9,112.7,406.8,112.6z M418.1,111.9
	c0.6,0,1.2-0.2,1.7-0.4c0.5-0.3,1-0.8,1.2-1.4c0.5-0.9,0.8-1.8,1-2.8c0.3-1.2,0.6-2.7,1-4.6l1-5.1h11.5l-1.4,17.4h-3.6l1.2-14.4
	h-4.6l-0.7,3.2c-0.5,2.2-1,4.1-1.4,5.5c-0.4,1.2-0.9,2.3-1.6,3.4c-0.5,0.8-1.2,1.4-2.1,1.8c-0.9,0.4-1.9,0.6-2.9,0.6L418.1,111.9
	L418.1,111.9z M447,99.4c0.8-0.7,1.7-1.2,2.6-1.6c1-0.4,2-0.5,3-0.5c0.7,0,1.4,0.1,2.1,0.3c0.6,0.2,1.1,0.5,1.6,0.8
	c0.9,0.8,1.4,2,1.2,3.2c-0.1,0.9-0.4,1.8-1,2.5c-0.6,0.7-1.4,1.1-2.3,1.2c2.2,0.2,3.8,2.1,3.6,4.2c0,0.1,0,0.2,0,0.3
	c-0.1,0.8-0.3,1.5-0.7,2.2c-0.4,0.7-0.9,1.2-1.5,1.7c-0.6,0.5-1.3,0.9-2.1,1.1c-0.9,0.3-1.8,0.4-2.7,0.4c-2.5,0-4.4-0.8-5.6-2.5
	l2-2.4c0.8,1.2,2.2,2,3.7,1.9c0.8,0,1.7-0.2,2.4-0.6c0.6-0.5,1-1.2,1-1.9c0.2-1.9-1.2-2.9-3.9-2.9h-1.2l0.2-2.4h1.2
	c0.9,0.1,1.8-0.2,2.5-0.7c0.6-0.4,1-1.1,1-1.8c0.1-0.5-0.1-1-0.5-1.4c-0.5-0.3-1.1-0.5-1.7-0.5c-1.3,0.1-2.6,0.6-3.6,1.5L447,99.4z
	 M465.4,115.3c-0.8,0-1.6-0.1-2.3-0.4c-0.6-0.3-1.3-0.7-1.8-1.1c-0.5-0.5-0.8-1.1-1.1-1.7c-0.2-0.7-0.3-1.5-0.3-2.2
	c0.1-0.8,0.3-1.5,0.7-2.2c0.4-0.7,1-1.3,1.7-1.7c0.7-0.5,1.5-0.9,2.4-1.1c1-0.3,2-0.4,3-0.4c0.8,0,1.6,0.1,2.4,0.2
	c0.7,0.1,1.4,0.3,2.1,0.6l0.1-1.2c0.2-1.1-0.2-2.2-0.9-3c-0.8-0.8-2-1.2-3.1-1.1c-1,0-1.9,0.2-2.8,0.5c-1,0.4-2,0.9-2.9,1.5
	l-0.9-2.3c2.1-1.4,4.6-2.2,7.2-2.3c2-0.2,3.9,0.5,5.4,1.8c1.3,1.4,1.9,3.4,1.6,5.3l-0.5,6.3c-0.1,0.8,0.2,1.2,0.9,1.2l-0.2,2.9
	c-0.3,0.1-0.6,0.1-0.9,0.1h-0.7c-0.6,0-1.1-0.2-1.6-0.5c-0.4-0.4-0.6-0.9-0.6-1.4V112c-0.8,1-1.9,1.8-3.1,2.3
	C468.1,115,466.7,115.3,465.4,115.3L465.4,115.3z M466.6,112.6c0.9,0,1.7-0.2,2.5-0.5c0.7-0.3,1.4-0.7,2-1.3
	c0.5-0.3,0.8-0.8,0.8-1.3l0.2-2.3c-0.6-0.2-1.2-0.4-1.9-0.6c-0.7-0.1-1.3-0.2-2-0.2c-1.2,0-2.3,0.3-3.3,0.8
	c-0.8,0.4-1.4,1.3-1.4,2.2c-0.1,0.8,0.2,1.6,0.8,2.2C464.9,112.3,465.7,112.7,466.6,112.6z M487.9,114.9l1.4-17.4h3.6l-1.1,14.2h5.3
	l1.1-14.2h3.6l-1.1,14.2h5.3l1.1-14.2h3.6l-1.4,17.4H487.9z M521.3,114.9h-3.6l1.1-14.2h-5.7l0.3-3.2h14.9l-0.3,3.2h-5.7
	L521.3,114.9z M534.1,115.3c-0.8,0-1.6-0.1-2.3-0.4c-0.6-0.3-1.3-0.7-1.8-1.1c-0.5-0.5-0.8-1.1-1.1-1.7c-0.2-0.7-0.3-1.5-0.3-2.2
	c0.1-0.8,0.3-1.5,0.7-2.2c0.4-0.7,1-1.3,1.7-1.7c0.7-0.5,1.5-0.9,2.4-1.1c1-0.3,2-0.4,3-0.4c0.8,0,1.6,0.1,2.4,0.2
	c0.7,0.1,1.4,0.3,2.1,0.6l0.1-1.2c0.2-1.1-0.2-2.2-0.9-3c-0.8-0.8-2-1.2-3.1-1.1c-1,0-1.9,0.2-2.8,0.5c-1,0.4-2,0.9-2.9,1.5
	l-0.9-2.3c2.1-1.4,4.6-2.2,7.2-2.3c2-0.2,3.9,0.5,5.4,1.8c1.3,1.4,1.9,3.4,1.6,5.3l-0.5,6.3c-0.1,0.8,0.2,1.2,0.9,1.2l-0.3,3.1
	c-0.3,0.1-0.6,0.1-0.9,0.1H543c-0.6,0-1.1-0.2-1.6-0.5c-0.4-0.4-0.6-0.9-0.6-1.4v-1.1C539.1,114.1,536.7,115.3,534.1,115.3
	L534.1,115.3z M535.3,112.6c0.9,0,1.7-0.2,2.5-0.5c0.7-0.3,1.4-0.7,2-1.3c0.5-0.3,0.8-0.8,0.8-1.3l0.2-2.3c-0.6-0.2-1.2-0.4-1.9-0.6
	c-0.7-0.1-1.3-0.2-2-0.2c-1.2,0-2.3,0.3-3.3,0.8c-0.8,0.4-1.4,1.3-1.4,2.2c-0.1,0.8,0.2,1.6,0.8,2.2
	C533.6,112.3,534.4,112.7,535.3,112.6L535.3,112.6z M555.4,114.9h-3.6l1.1-14.2h-5.7l0.3-3.2h14.9l-0.3,3.2h-5.7L555.4,114.9z"/>
<polygon class="st1" points="5.5,116.8 7.7,116.8 6.6,112.6 "/>
<path class="st2" d="M4.4,108L0,121.7h4.1l0.5-1.8h4l0.5,1.8v-0.1h4.2L9,108H4.4z M5.5,116.9l1.1-4.2l1.2,4.2H5.5z"/>
<path class="st2" d="M36.6,114.9c0.9-1.9,0.6-4.1-0.9-5.7c-1-0.9-2.4-1.3-3.7-1.2h-5.6v13.6h3.9v-4.2h1.1l2.2,4.2h4.2l-2.7-5.1
	C35.7,116.1,36.3,115.5,36.6,114.9z M33,113.9c-0.3,0.2-0.7,0.2-1.1,0.2h-1.5v-2.4H32c0.4-0.1,0.8,0.1,1.1,0.4
	c0.3,0.2,0.4,0.6,0.4,0.9C33.5,113.3,33.3,113.7,33,113.9L33,113.9z"/>
<path class="st2" d="M57.7,111.4c0.5,0,1.1,0.1,1.5,0.4c0.4,0.2,0.8,0.6,1.1,1l3.3-1.9c-1.2-2.1-3.5-3.4-5.9-3.3
	c-4,0-7.2,3.2-7.2,7.2c0,4,3.2,7.2,7.2,7.2c1.2,0,2.4-0.3,3.5-0.9c1-0.6,1.8-1.4,2.4-2.4l-3.4-2c-0.2,0.5-0.6,0.8-1.1,1.1
	c-0.5,0.3-1,0.4-1.5,0.4c-0.9,0-1.7-0.3-2.3-0.9c-0.6-0.7-0.9-1.5-0.9-2.4c-0.1-0.9,0.3-1.8,0.9-2.4C56,111.6,56.8,111.3,57.7,111.4
	z"/>
<polygon class="st2" points="84.6,112.8 81.2,112.8 81.2,108 77.4,108 77.4,121.6 81.2,121.6 81.2,116.6 84.6,116.6 84.6,121.6 
	88.4,121.6 88.4,108 84.6,108 "/>
<rect x="103.2" y="108" class="st2" width="3.9" height="13.6"/>
<rect x="92.7" y="56" class="st3" width="4.6" height="42.2"/>
<rect x="102.4" y="56" class="st3" width="4.6" height="42.2"/>
<polygon class="st4" points="5.4,0 0,3.1 0,8.6 14.8,0 "/>
<polygon class="st4" points="51,20.2 51,14.8 25.5,0 0,14.8 0,20.2 25.5,5.4 "/>
<polygon class="st4" points="51,3.1 45.6,0 36.2,0 51,8.6 "/>
<polygon class="st4" points="51,31.8 51,26.3 25.5,11.6 0,26.3 0,31.8 25.5,17.1 "/>
<polygon class="st4" points="51,43.4 51,37.9 25.5,23.3 0,37.9 0,43.4 25.5,28.7 "/>
<polygon class="st4" points="25.5,40.2 44.2,51 51,51 51,49.6 25.5,34.8 0,49.6 0,51 6.8,51 "/>
<polygon class="st4" points="17.6,51 33.4,51 25.5,46.4 "/>
<path class="st5" d="M0,56v15c0.9-5.4,3-10.5,6-15H0z"/>
<path class="st5" d="M0,83.2v15h6C2.9,93.6,0.9,88.5,0,83.2z"/>
<path class="st5" d="M9.5,77.1c0-8.1,3.6-15.8,9.8-21.1h-6.9c-5,5.9-7.7,13.4-7.7,21.1c-0.1,7.7,2.7,15.2,7.7,21.1h6.9
	C13.2,92.9,9.6,85.2,9.5,77.1z"/>
<path class="st5" d="M37.4,98.2v-3.5h-0.1c-9.7-0.2-17.4-8.3-17.2-18c0.2-9.4,7.8-17,17.2-17.2h0.1V56h-8.2
	c-8.7,3.4-14.4,11.8-14.4,21.1c-0.1,9.3,5.7,17.7,14.4,21.1H37.4z"/>
<path class="st5" d="M37.4,64.5h-0.1c-7,0-12.6,5.6-12.6,12.6c0,7,5.6,12.6,12.6,12.6h0.1v-5h-0.1c-4.2,0-7.6-3.4-7.6-7.6
	c0-4.2,3.4-7.6,7.6-7.6l0,0h0.1V64.5z"/>
<line class="st1" x1="37.4" y1="74.7" x2="37.4" y2="74.8"/>
<path class="st5" d="M34.8,77.2c0,1.3,1.1,2.4,2.5,2.4h0.1v-4.9h-0.1C35.9,74.8,34.8,75.9,34.8,77.2z"/>
<polygon class="st6" points="65.3,51 56,41.8 56,48.8 58.2,51 "/>
<polygon class="st6" points="61.6,40.2 72.5,51 79.4,51 68.6,40.2 "/>
<path class="st6" d="M93.7,51L82,39.5c-2,0.5-4.1,0.8-6.2,0.8L86.6,51H93.7z"/>
<path class="st6" d="M100.1,0c6.9,13.7,1.4,30.4-12.3,37.4c0,0,0,0,0,0l-0.3,0.2l13.5,13.4h6.2v-0.8L95.4,38.4l1.9-1.8
	c4.8-4.4,8.3-10,9.9-16.3V4.6c-0.4-1.6-0.9-3.1-1.5-4.6H100.1z"/>
<path class="st6" d="M87.9,12.6C87.9,5.6,82.3,0,75.3,0H56v5h19.3c4.2,0.2,7.5,3.7,7.3,7.9c-0.1,4-3.3,7.2-7.3,7.3H56v5h19.3
	C82.3,25.2,87.9,19.5,87.9,12.6z"/>
<path class="st6" d="M77.9,12.6c0-1.4-1.1-2.5-2.4-2.6H56.2v5h19.3C76.8,15,77.9,13.9,77.9,12.6z"/>
<path class="st6" d="M97.9,12.6c0-4.5-1.3-8.9-3.8-12.6h-6.4c3.4,3.3,5.3,7.9,5.3,12.6c0,9.7-7.8,17.6-17.5,17.6c0,0,0,0,0,0H56v5
	h19.3C87.8,35.2,97.9,25.1,97.9,12.6z"/>
<path class="st6" d="M107.1,43.1V33c-1.3,2-2.7,3.8-4.4,5.5L107.1,43.1z"/>
<polygon class="st7" points="82.6,98.2 87.7,98.2 87.7,56 82.6,56 82.6,74.5 47.4,74.5 47.4,56 42.4,56 42.4,98.2 47.4,98.2 
	47.4,79.7 82.6,79.7 "/>
<polygon class="st7" points="77.6,56 72.6,56 72.6,64.5 57.5,64.5 57.5,56 52.4,56 52.4,69.5 77.6,69.5 "/>
<rect x="62.5" y="56" class="st7" width="5" height="3.5"/>
<polygon class="st7" points="77.6,98.2 77.6,84.7 52.4,84.7 52.4,98.2 57.5,98.2 57.5,89.7 72.6,89.7 72.6,98.2 "/>
<rect x="62.5" y="94.7" class="st7" width="5" height="3.5"/>
</svg>
